<?xml version="1.0" standalone="no"?>
<!DOCTYPE svg PUBLIC "-//W3C//DTD SVG 20010904//EN"
 "http://www.w3.org/TR/2001/REC-SVG-20010904/DTD/svg10.dtd">
<svg version="1.0" xmlns="http://www.w3.org/2000/svg"
 width="225.000000pt" height="225.000000pt" viewBox="0 0 225.000000 225.000000"
 preserveAspectRatio="xMidYMid meet">
<metadata>
Created by potrace 1.14, written by Peter Selinger 2001-2017
</metadata>
<g transform="translate(0.000000,225.000000) scale(0.100000,-0.100000)"
fill="#000000" stroke="none">
<path d="M1362 2093 c-16 -13 -95 -260 -307 -949 -308 -1003 -299 -969 -241
-995 34 -16 73 -4 90 29 15 30 576 1850 576 1870 0 22 -48 62 -73 62 -14 0
-34 -8 -45 -17z"/>
<path d="M338 1422 c-230 -229 -268 -272 -268 -297 0 -25 38 -68 268 -297 219
-220 272 -268 295 -268 37 0 67 32 67 73 0 29 -24 56 -230 262 l-230 230 230
230 c205 206 230 234 230 263 0 40 -30 72 -67 72 -23 0 -76 -48 -295 -268z"/>
<path d="M1570 1670 c-12 -12 -20 -33 -20 -53 0 -29 24 -56 230 -262 l230
-230 -230 -230 c-205 -206 -230 -234 -230 -263 0 -40 30 -72 67 -72 23 0 76
48 295 268 230 229 268 272 268 297 0 25 -38 68 -268 297 -286 286 -296 294
-342 248z"/>
</g>
</svg>
